HIERARCHY
ROOT Hips
{
  OFFSET -31.5692 30.0904 122.763
  CHANNELS 6 Xposition Yposition Zposition Zrotation Xrotation Yrotation
  JOINT LeftUpLeg
  {
    OFFSET 8.64259 1.95398 -2.38835
    CHANNELS 3 Zrotation Xrotation Yrotation
    JOINT LeftLeg
    {
      OFFSET 43.7702 0 0
      CHANNELS 3 Zrotation Xrotation Yrotation
      JOINT LeftFoot
      {
        OFFSET 40.6238 0 0
        CHANNELS 3 Zrotation Xrotation Yrotation
        JOINT LeftToeBase
        {
          OFFSET 12.7242 0 0
          CHANNELS 3 Zrotation Xrotation Yrotation
          End Site
          {
            OFFSET 0 0 0
          }
        }
      }
    }
  }
  JOINT RightUpLeg
  {
    OFFSET -8.2249 1.95398 -2.59336
    CHANNELS 3 Zrotation Xrotation Yrotation
    JOINT RightLeg
    {
      OFFSET 43.5653 0 0
      CHANNELS 3 Zrotation Xrotation Yrotation
      JOINT RightFoot
      {
        OFFSET 40.6238 0 0
        CHANNELS 3 Zrotation Xrotation Yrotation
        JOINT RightToeBase
        {
          OFFSET 12.7242 0 0
          CHANNELS 3 Zrotation Xrotation Yrotation
          End Site
          {
            OFFSET 0 0 0
          }
        }
      }
    }
  }
  JOINT Spine
  {
    OFFSET 0.165834 0.87714 6.61349
    CHANNELS 3 Zrotation Xrotation Yrotation
    JOINT Spine1
    {
      OFFSET 7.38963 1.71661e-005 0
      CHANNELS 3 Zrotation Xrotation Yrotation
      JOINT Spine2
      {
        OFFSET 11.9445 1.14441e-005 0
        CHANNELS 3 Zrotation Xrotation Yrotation
        JOINT Spine3
        {
          OFFSET 14.7254 4.19617e-005 0
          CHANNELS 3 Zrotation Xrotation Yrotation
          JOINT Spine4
          {
            OFFSET 10.9679 0 0
            CHANNELS 3 Zrotation Xrotation Yrotation
            JOINT RightShoulder
            {
              OFFSET 2.46616 -1.6653 3.69651
              CHANNELS 3 Zrotation Xrotation Yrotation
              JOINT RightArm
              {
                OFFSET 13.0012 0 0
                CHANNELS 3 Zrotation Xrotation Yrotation
                JOINT RightForeArm
                {
                  OFFSET 28.7848 1.62311e-005 0
                  CHANNELS 3 Zrotation Xrotation Yrotation
                  JOINT RightHand
                  {
                    OFFSET 26.5688 1.62095e-005 0
                    CHANNELS 3 Zrotation Xrotation Yrotation
                    End Site
                    {
                      OFFSET 0 0 0
                    }
                  }
                }
              }
            }
            JOINT LeftShoulder
            {
              OFFSET 2.38034 -1.29275 -3.7523
              CHANNELS 3 Zrotation Xrotation Yrotation
              JOINT LeftArm
              {
                OFFSET 16.3182 6.07031e-005 0
                CHANNELS 3 Zrotation Xrotation Yrotation
                JOINT LeftForeArm
                {
                  OFFSET 27.0901 0 0
                  CHANNELS 3 Zrotation Xrotation Yrotation
                  JOINT LeftHand
                  {
                    OFFSET 24.5451 1.51738e-005 0
                    CHANNELS 3 Zrotation Xrotation Yrotation
                    End Site
                    {
                      OFFSET 0 0 0
                    }
                  }
                }
              }
            }
            JOINT Neck
            {
              OFFSET 5.0226 -0.0266342 0
              CHANNELS 3 Zrotation Xrotation Yrotation
              JOINT Head
              {
                OFFSET 6.69364 2.86102e-005 0
                CHANNELS 3 Zrotation Xrotation Yrotation
                End Site
                {
                  OFFSET 0 0 0
                }
              }
            }
          }
        }
      }
    }
  }
}
MOTION
Frames:	15
Frame Time:	0.0416667
31.7998 101.356 15.7695 6.09477 -86.5648 6.9283 -173.752 8.75545 93.3891 -11.2628 1.6954 0.186689 67.2159 1.34387 -5.16768 19.8207 -7.34493 6.68146 174.784 3.86591 92.2655 -4.46773 0.155146 1.47706 63.6839 -1.37154 1.61686 26.3037 0.346075 3.59128 0.536062 5.97592 -89.7405 14.9209 1.18951 0.346122 3.25044 1.20359 0.29341 -19.2878 1.03049 0.687641 0.724829 1.03049 0.687641 102.513 22.7962 -77.9728 -9.87541 29.9806 -52.4381 -11.9534 63.4608 -0.0142649 20.1467 0.3025 -17.2618 -77.6839 17.2098 96.6587 10.8308 -38.0415 -75.0562 -166.29 -84.4786 179.785 -21.2622 -5.67485 3.61443 44.4448 -5.26353 -7.93705 -23.4629 -0.790877 1.00395 
31.5771 101.266 14.4995 5.18204 -85.7375 5.76011 -174.098 10.7124 93.0876 -11.9696 1.52456 0.152036 67.0181 1.14171 -5.14328 19.7505 -8.09183 8.19332 174.535 5.73298 92.0846 -4.93451 0.158135 1.90473 63.7884 -1.5092 1.17863 26.0243 0.430243 3.75095 0.535541 6.08149 -89.8406 14.7109 1.13889 0.155383 3.04041 1.14463 0.1051 -19.4981 1.03954 0.49052 0.514517 1.03953 0.490514 102.421 21.7996 -80.079 -9.2342 31.37 -48.9839 -9.5676 62.6252 -4.5472 19.5593 0.117043 -18.7985 -78.4023 14.548 92.9226 8.32514 -39.1253 -70.9314 -91.6745 -87.6287 -105.719 -23.7159 -5.08445 0.760786 38.1248 -4.66651 -7.84638 -18.8095 -0.835469 1.42608 
31.3374 101.218 13.3733 8.60989 -85.1843 8.83256 -174.219 12.3092 92.8344 -12.5574 1.6456 -0.120767 66.6251 1.26968 -4.92181 19.4957 -8.20235 8.10181 174.216 7.3577 91.7123 -5.67911 0.62657 2.2589 63.6693 -1.29989 1.30855 27.0707 -0.0164049 3.73914 0.421807 6.22197 -89.9444 14.4304 0.862767 -0.0100196 2.75971 0.861485 -0.0479961 -19.7776 0.825884 0.249762 0.235054 0.82588 0.249752 102.313 18.1416 -81.4992 -2.92296 34.211 -51.2653 -2.33561 56.3482 -16.4742 18.9755 -0.599925 -23.3633 -77.761 4.63496 96.5043 -1.55367 -38.5349 -83.3102 -23.9564 -78.1653 -38.1824 -25.704 -3.85668 -3.61629 28.5369 -4.09025 -7.77994 -12.4122 -0.97447 1.09463 
31.0545 101.197 12.2062 10.4973 -85.0308 10.5888 -174.003 13.6401 92.932 -13.266 2.23689 -0.614106 66.2535 1.66855 -4.60694 18.7902 -8.51353 7.86286 174.331 8.78877 91.8123 -6.87019 1.20864 2.31582 63.7974 -1.36286 1.5429 25.9656 0.537425 3.39946 0.39811 6.49226 -90.1122 13.8911 0.734431 -0.324448 2.22028 0.71944 -0.356462 -20.3165 0.797986 -0.0887034 -0.303876 0.797982 -0.088713 101.835 13.1322 -85.5294 3.41653 37.3001 -50.9189 3.01467 46.3177 -28.3714 16.199 -1.08313 -28.3059 -78.3638 -3.92538 95.146 -11.5421 -35.1759 -86.8704 -24.2724 -62.934 -39.8105 -28.0628 -1.615 -10.5867 21.4133 -3.51839 -5.42854 -9.9552 -1.59589 -0.264517 
30.897 101.111 10.908 15.4466 -84.8489 14.9232 -173.813 14.8765 92.5616 -13.8597 2.85202 -1.28411 65.8942 2.26585 -4.36832 18.9016 -8.52449 8.02527 174.026 11.3918 91.3415 -10.1378 1.88795 2.48715 64.9255 -1.44087 2.23591 23.7856 1.3711 3.85845 0.368693 6.80472 -90.1259 13.2655 0.670915 -0.336286 1.59468 0.655461 -0.365504 -20.9418 0.740963 -0.119094 -0.929154 0.740963 -0.119097 101.819 7.23863 -84.3486 18.4576 36.2214 -57.6429 3.16974 29.7975 -38.7573 10.3517 -1.06699 -34.7767 -80.2624 -11.7905 90.247 -18.0826 -28.7391 -83.0174 -21.4075 -47.5997 -40.9796 -33.6 2.27136 -20.6132 14.2894 -3.39585 -5.81083 -7.2293 -1.80053 0.772569 
30.8309 100.988 9.43245 13.5081 -84.0507 12.7846 -173.791 16.8683 92.307 -14.5867 3.02099 -1.73856 65.7301 2.89221 -4.05519 19.1761 -7.98312 7.23562 173.587 13.9198 91.1507 -11.6385 0.861735 3.09348 64.7511 -1.49084 1.68568 23.9327 1.49167 3.1196 0.241148 7.16353 -90.3416 12.5467 0.316473 -0.717113 0.875581 0.284617 -0.730346 -21.6587 0.517355 -0.588849 -1.64605 0.517371 -0.58885 100.036 -3.35471 -88.3766 18.6013 35.8229 -50.1709 5.44709 17.5384 -53.2817 7.05329 -0.923259 -38.6111 -82.6099 -23.3094 86.496 -15.2267 -22.6972 -70.2012 -21.9997 -35.2802 -47.7556 -31.338 4.5643 -27.9421 11.084 -1.56765 -2.48067 -8.46655 -0.932792 -0.722343 
30.8903 100.548 7.89317 8.49168 -82.2921 7.39729 -173.727 20.4688 91.7641 -16.6956 3.3045 -2.44621 67.4842 4.40435 -3.12659 19.0514 -8.00702 7.12967 173.371 18.1851 90.7957 -14.3206 0.590182 3.5021 65.2332 -1.70488 1.33644 25.4489 0.736069 3.49896 0.276483 7.65355 -90.4382 11.5682 0.344887 -0.912659 -0.103065 0.304383 -0.926957 -22.6367 0.603229 -0.766817 -2.62407 0.603223 -0.766833 98.1427 -7.81687 -95.2599 18.261 30.2395 -36.6149 5.95074 10.1569 -65.6599 3.30156 -0.199957 -40.7504 -85.5701 -31.8341 82.2281 -11.2942 -15.2352 -57.3113 -17.3659 -26.0864 -51.1671 -29.931 6.90416 -36.0825 9.95049 -1.34232 -3.47536 -10.1481 -0.618294 1.53114 
31.09 99.8571 6.29918 0.00185098 -79.6379 -1.59253 -173.412 25.542 91.2762 -19.8501 2.60615 -3.3467 69.134 5.48146 -2.85147 19.2961 -7.99947 7.41757 173.039 24.6686 90.546 -19.1817 -0.687229 4.1819 66.0641 -2.10086 1.29081 25.7867 0.496007 3.91453 0.247746 8.09319 -90.4761 10.6876 0.274093 -0.97029 -0.983631 0.231136 -0.981405 -23.5167 0.553024 -0.843073 -3.50405 0.553021 -0.843069 95.6694 -15.7133 -99.2964 16.7132 21.2996 -26.9899 3.05874 5.79853 -70.5237 -0.813284 0.697534 -41.0815 -88.1221 -39.7444 79.4357 -3.18884 -6.92963 -44.8383 -16.5648 -23.7385 -53.7307 -27.3734 6.86901 -38.3238 10.9556 -0.49038 -3.14975 -12.9255 0.095837 2.00994 
31.327 98.8496 4.71344 -5.96669 -76.2068 -7.70522 -172.413 32.4492 91.2238 -25.0988 2.12031 -4.68227 69.6126 5.35783 -2.72602 17.4519 -8.35175 5.89654 172.643 32.2714 90.9128 -24.8197 -2.95343 5.22051 67.1734 -3.06902 0.529551 21.8983 1.96006 4.71536 0.205134 8.57789 -90.5235 9.71776 0.172163 -1.05187 -1.9536 0.125708 -1.05843 -24.4859 0.480312 -0.95151 -4.4733 0.480314 -0.951511 92.5054 -21.1154 -104.948 15.437 13.7965 -21.4062 4.72416 6.65474 -67.2665 -1.39307 0.917611 -41.0165 -90.2246 -45.325 77.3217 1.83485 -0.324964 -37.4331 -15.8039 -24.8618 -49.5381 -27.1331 7.42323 -40.582 13.056 0.308665 -2.38036 -13.5317 0.716853 2.14803 
31.7274 96.9732 3.23131 -10.6536 -72.3898 -12.242 -170.809 41.1486 91.462 -33.0618 2.46021 -6.4219 70.5153 5.46404 -3.07775 18.1369 -8.63584 7.31156 170.882 41.0147 91.6459 -32.1902 -7.11696 7.51535 68.8863 -4.44494 -0.754342 20.1421 2.54465 5.30134 0.280018 9.1267 -90.4921 8.621 0.340746 -0.995016 -3.0503 0.296628 -1.00905 -25.5835 0.624028 -0.846628 -5.57078 0.624026 -0.846623 91.2826 -23.5953 -106.654 14.4933 7.82687 -24.2583 7.75176 9.97048 -56.6244 0.0423666 0.639866 -40.7471 -91.5503 -45.2713 75.2221 2.63405 2.64153 -37.4502 -12.5523 -25.2431 -38.9722 -27.1439 8.21457 -43.3705 15.3715 0.575458 -2.24927 -12.916 1.00679 2.09102 
32.0634 94.2757 1.73069 -10.9766 -68.0855 -12.327 -167.301 51.1056 90.7957 -42.0117 4.85949 -8.68402 73.4982 7.1711 -2.38382 16.0776 -9.37248 6.31744 165.94 50.771 94.0919 -40.3012 -11.9008 10.6034 70.5831 -6.21782 -2.33179 19.0449 2.50039 7.00936 0.440759 9.50242 -90.415 7.87097 0.698763 -0.857771 -3.8001 0.660335 -0.887709 -26.3355 0.924253 -0.608122 -6.32282 0.924247 -0.608124 89.2678 -22.1899 -111.779 12.035 5.8714 -25.6829 6.21803 9.82808 -44.3166 0.956164 0.227699 -42.1293 -92.5272 -41.6781 72.6339 1.46322 2.11968 -42.7075 -7.23744 -22.2108 -26.4067 -22.8873 6.8215 -43.5843 17.1458 0.286929 -3.02397 -11.8741 0.966523 2.52383 
32.4502 90.5729 0.339826 -6.97781 -64.0593 -9.27861 -160.42 61.129 85.4542 -51.3578 9.14513 -10.7439 76.2933 9.08511 -1.61917 15.3066 -10.034 6.7072 156.958 61.3336 98.7175 -50.1926 -16.8785 12.8953 73.1384 -8.60923 -3.51717 17.9611 2.67363 7.89985 0.507701 9.81584 -90.3397 7.24449 0.867439 -0.709683 -4.42638 0.835368 -0.747187 -26.9632 1.04062 -0.416161 -6.95057 1.04062 -0.416171 88.7452 -20.6903 -113.758 9.17407 6.41995 -29.3974 5.44138 10.2609 -35.069 2.28861 -0.21409 -40.0925 -92.8335 -38.574 71.1502 0.0799751 0.170664 -50.087 -4.51627 -17.7828 -18.2564 -20.8075 6.09409 -43.2868 19.9828 -0.186898 -2.33303 -11.4029 0.384571 2.40787 
32.3775 86.1843 -0.80365 -5.11644 -61.3125 -7.33015 -145.935 69.2722 75.2253 -60.4804 16.2168 -12.879 79.0034 11.5853 -0.151924 13.65 -10.1176 5.00356 142.361 69.2445 110.635 -60.3304 -20.6288 13.8456 75.5899 -10.7326 -4.01567 18.0267 2.73805 7.60144 0.603448 10.2679 -90.3403 6.34092 1.06145 -0.706017 -5.32982 1.02934 -0.752072 -27.868 1.22456 -0.354346 -7.8553 1.22455 -0.354347 87.7232 -19.6841 -116.669 4.65335 9.46626 -32.6118 5.43408 14.6533 -27.9841 1.8389 0.189636 -38.0468 -92.5387 -35.6135 70.6397 -1.01688 -2.9033 -57.8365 -2.38903 -17.3772 -12.5863 -19.549 5.23992 -41.0295 23.6266 -0.367784 -1.59169 -12.0633 0.0925255 1.38198 
32.1743 81.3673 -1.94921 -1.88424 -60.0632 -5.10928 -121.374 73.7383 53.6971 -69.548 21.8291 -13.7486 80.5845 13.0588 0.0991632 11.4006 -10.8061 3.85856 118.425 74.5272 131.556 -71.46 -23.242 12.4232 78.6706 -13.0701 -3.87348 17.8561 2.91711 7.24367 0.613097 10.713 -90.3277 5.45045 1.08885 -0.668921 -6.22025 1.05836 -0.716195 -28.7586 1.23954 -0.310718 -8.746 1.23954 -0.310723 88.5332 -17.3803 -116.259 1.5775 12.47 -36.128 3.30646 12.6644 -22.9877 3.54473 -0.462849 -38.0901 -92.5144 -32.6408 69.5984 -0.496713 -6.26094 -64.8002 -0.455825 -15.7482 -7.03717 -22.8877 6.74384 -42.7099 24.5167 -0.973378 -1.00913 -11.489 -0.646426 0.959917 
31.886 75.8904 -2.92688 1.07821 -60.5471 -2.87595 -94.5285 74.1602 29.0992 -79.6722 26.3436 -12.2801 83.0627 15.1503 0.455836 9.96727 -11.4946 3.59757 88.1291 74.8408 158.275 -83.0858 -25.5998 10.0717 81.8736 -15.6333 -3.75086 17.8102 2.84117 7.55211 0.579845 11.1538 -90.3132 4.5685 1.03069 -0.62439 -7.10221 1.00222 -0.669143 -29.6403 1.17069 -0.285719 -9.62767 1.17069 -0.28572 89.296 -14.5122 -116.29 -2.58722 13.7898 -37.6576 3.18383 13.7033 -18.0912 2.12782 0.00111202 -36.7287 -92.4309 -29.8375 68.648 1.56307 -10.0609 -69.653 0.681537 -9.16462 -3.13999 -17.7443 4.37531 -38.5764 24.6663 -1.14923 -0.459026 -11.0385 -0.945309 0.0699222 
